<?xml version="1.0" encoding="iso-8859-1"?>
<!-- Generator: Adobe Illustrator 19.0.0, SVG Export Plug-In . SVG Version: 6.00 Build 0)  -->
<svg version="1.1" id="Layer_1" xmlns="http://www.w3.org/2000/svg" xmlns:xlink="http://www.w3.org/1999/xlink" x="0px" y="0px"
	 viewBox="0 0 512.004 512.004" style="enable-background:new 0 0 512.004 512.004;" xml:space="preserve">
<g>
	<g>
		<g>
			<path d="M93.87,143.945h8.533c4.719,0,8.533-3.814,8.533-8.533c0-2.185-0.828-4.181-2.176-5.692c0-2.022-0.717-4.062-2.176-5.692
				c-3.14-3.507-8.542-3.806-12.049-0.666l-6.357,5.692c-2.637,2.355-3.541,6.101-2.287,9.404
				C87.162,141.76,90.337,143.945,93.87,143.945z"/>
			<path d="M119.47,143.945c0,4.719,3.814,8.533,8.533,8.533s8.533-3.814,8.533-8.533v-8.533c0-4.719-3.814-8.533-8.533-8.533
				h-8.533c-4.719,0-8.533,3.814-8.533,8.533S114.751,143.945,119.47,143.945z"/>
			<path d="M128.003,200.478c4.719,0,8.533-3.814,8.533-8.533v-16c0-4.719-3.814-8.533-8.533-8.533s-8.533,3.814-8.533,8.533v16
				C119.47,196.664,123.284,200.478,128.003,200.478z"/>
			<path d="M119.47,239.945c0,4.719,3.814,8.533,8.533,8.533s8.533-3.814,8.533-8.533v-16c0-4.719-3.814-8.533-8.533-8.533
				s-8.533,3.814-8.533,8.533V239.945z"/>
			<path d="M119.47,280.478c0,4.719,3.814,8.533,8.533,8.533h8.533c4.719,0,8.533-3.814,8.533-8.533
				c0-4.719-3.814-8.533-8.533-8.533c0-4.719-3.814-8.533-8.533-8.533s-8.533,3.814-8.533,8.533V280.478z"/>
			<path d="M229.394,280.478c0-4.719-3.814-8.533-8.533-8.533h-14.046c-4.719,0-8.533,3.814-8.533,8.533
				c0,4.719,3.814,8.533,8.533,8.533h14.046C225.58,289.011,229.394,285.197,229.394,280.478z"/>
			<path d="M156.111,280.478c0,4.719,3.814,8.533,8.533,8.533h14.054c4.719,0,8.533-3.814,8.533-8.533
				c0-4.719-3.814-8.533-8.533-8.533h-14.054C159.925,271.945,156.111,275.759,156.111,280.478z"/>
			<path d="M291.145,271.945c-4.719,0-8.533,3.814-8.533,8.533c0,4.719,3.814,8.533,8.533,8.533h14.046
				c4.719,0,8.533-3.814,8.533-8.533c0-4.719-3.814-8.533-8.533-8.533H291.145z"/>
			<path d="M324.778,280.478c0,4.719,3.814,8.533,8.533,8.533h14.046c4.719,0,8.533-3.814,8.533-8.533
				c0-4.719-3.814-8.533-8.533-8.533h-14.046C328.593,271.945,324.778,275.759,324.778,280.478z"/>
			<path d="M375.47,289.011h8.533c4.719,0,8.533-3.814,8.533-8.533v-8.533c0-4.719-3.814-8.533-8.533-8.533
				c-4.719,0-8.533,3.814-8.533,8.533c-4.719,0-8.533,3.814-8.533,8.533C366.936,285.197,370.751,289.011,375.47,289.011z"/>
			<path d="M392.536,175.945c0-4.719-3.814-8.533-8.533-8.533c-4.719,0-8.533,3.814-8.533,8.533v16c0,4.719,3.814,8.533,8.533,8.533
				c4.719,0,8.533-3.814,8.533-8.533V175.945z"/>
			<path d="M384.003,215.411c-4.719,0-8.533,3.814-8.533,8.533v16c0,4.719,3.814,8.533,8.533,8.533c4.719,0,8.533-3.814,8.533-8.533
				v-16C392.536,219.226,388.722,215.411,384.003,215.411z"/>
			<path d="M384.003,126.878c-4.719,0-8.533,3.814-8.533,8.533v8.533c0,4.719,3.814,8.533,8.533,8.533
				c4.719,0,8.533-3.814,8.533-8.533c4.719,0,8.533-3.814,8.533-8.533s-3.814-8.533-8.533-8.533H384.003z"/>
			<path d="M409.603,143.945h8.533c3.533,0,6.707-2.185,7.979-5.487c1.254-3.302,0.35-7.049-2.287-9.404l-6.357-5.692
				c-3.49-3.132-8.9-2.85-12.049,0.666c-1.459,1.63-2.176,3.669-2.176,5.692c-1.348,1.51-2.176,3.507-2.176,5.692
				C401.07,140.13,404.884,143.945,409.603,143.945z"/>
			<path d="M337.017,74.287l11.511,10.291c1.63,1.459,3.669,2.176,5.692,2.176c2.338,0,4.676-0.956,6.357-2.842
				c3.14-3.516,2.842-8.909-0.666-12.049L348.4,61.573c-3.516-3.14-8.917-2.85-12.049,0.666
				C333.211,65.754,333.51,71.147,337.017,74.287z"/>
			<path d="M371.549,105.179l11.511,10.3c1.63,1.459,3.669,2.176,5.692,2.176c2.338,0,4.676-0.956,6.357-2.842
				c3.14-3.507,2.842-8.909-0.666-12.049l-11.511-10.3c-3.524-3.14-8.909-2.842-12.049,0.666S368.042,102.038,371.549,105.179z"/>
			<path d="M123.327,117.586c2.022,0,4.07-0.717,5.692-2.176l11.511-10.3c3.507-3.14,3.806-8.533,0.666-12.049
				c-3.14-3.516-8.542-3.814-12.049-0.666l-11.511,10.3c-3.507,3.14-3.806,8.542-0.666,12.049
				C118.651,116.63,120.989,117.586,123.327,117.586z"/>
			<path d="M302.492,43.386l11.511,10.3c1.63,1.459,3.669,2.176,5.692,2.176c2.338,0,4.676-0.956,6.357-2.842
				c3.14-3.507,2.842-8.909-0.666-12.049l-11.512-10.3c-3.524-3.14-8.909-2.85-12.049,0.666
				C298.686,34.844,298.984,40.246,302.492,43.386z"/>
			<path d="M157.861,86.686c2.022,0,4.062-0.717,5.692-2.176l11.511-10.291c3.507-3.14,3.806-8.533,0.666-12.049
				c-3.132-3.516-8.525-3.814-12.049-0.666l-11.511,10.291c-3.507,3.14-3.806,8.533-0.666,12.049
				C153.185,85.73,155.523,86.686,157.861,86.686z"/>
			<path d="M227.119,25.12c1.715,0,3.456-0.521,4.966-1.596c3.473-2.492,7.296-4.42,11.366-5.717
				c4.48-1.434,6.963-6.238,5.53-10.726c-1.434-4.489-6.204-7.006-10.726-5.53c-5.769,1.843-11.196,4.565-16.119,8.107
				c-3.823,2.748-4.71,8.073-1.954,11.904C221.846,23.883,224.457,25.12,227.119,25.12z"/>
			<path d="M192.395,55.795c2.022,0,4.07-0.717,5.692-2.176l11.511-10.3c3.507-3.14,3.806-8.533,0.666-12.049
				c-3.14-3.507-8.542-3.814-12.049-0.666l-11.511,10.3c-3.507,3.14-3.806,8.542-0.666,12.049
				C187.718,54.839,190.056,55.795,192.395,55.795z"/>
			<path d="M268.62,17.82c4.07,1.314,7.902,3.251,11.375,5.76c1.51,1.084,3.251,1.596,4.975,1.596c2.662,0,5.265-1.229,6.938-3.55
				c2.756-3.831,1.877-9.156-1.946-11.904c-4.924-3.541-10.342-6.281-16.094-8.132c-4.497-1.459-9.293,1.015-10.743,5.487
				C261.682,11.565,264.139,16.377,268.62,17.82z"/>
			<path d="M247.47,272.249c-3.968,0.734-7.023,4.045-7.023,8.226s3.055,7.501,7.023,8.235v82.099l-28.1-28.1
				c-3.336-3.328-8.73-3.328-12.066,0c-3.337,3.337-3.337,8.738,0,12.066l42.658,42.658c0.785,0.794,1.732,1.417,2.782,1.852
				c1.041,0.435,2.15,0.657,3.26,0.657c1.109,0,2.219-0.222,3.26-0.657c1.05-0.435,1.997-1.058,2.782-1.852l42.658-42.658
				c3.336-3.328,3.336-8.73,0-12.066c-3.337-3.328-8.73-3.328-12.066,0l-28.1,28.1v-82.099c3.968-0.734,7.031-4.045,7.031-8.235
				c0-4.181-3.063-7.501-7.031-8.226v-59.614c0-4.719-3.814-8.533-8.533-8.533c-4.719,0-8.533,3.814-8.533,8.533V272.249z"/>
			<path d="M509.178,496.003l-85.333-76.8c-1.57-1.408-3.601-2.193-5.709-2.193H93.869c-2.108,0-4.139,0.785-5.709,2.193
				l-85.333,76.8c-2.628,2.355-3.524,6.101-2.261,9.404c1.271,3.294,4.437,5.47,7.97,5.47h494.933c3.533,0,6.699-2.176,7.97-5.47
				C512.702,502.104,511.806,498.358,509.178,496.003z"/>
		</g>
	</g>
</g>
<g>
</g>
<g>
</g>
<g>
</g>
<g>
</g>
<g>
</g>
<g>
</g>
<g>
</g>
<g>
</g>
<g>
</g>
<g>
</g>
<g>
</g>
<g>
</g>
<g>
</g>
<g>
</g>
<g>
</g>
</svg>
