<?xml version="1.0" encoding="iso-8859-1"?>
<!-- Generator: Adobe Illustrator 19.0.0, SVG Export Plug-In . SVG Version: 6.00 Build 0)  -->
<svg version="1.1" id="Layer_1" xmlns="http://www.w3.org/2000/svg" xmlns:xlink="http://www.w3.org/1999/xlink" x="0px" y="0px"
	 viewBox="0 0 512 512" style="enable-background:new 0 0 512 512;" xml:space="preserve">
<g>
	<g>
		<path d="M499.829,94.278L234.64,11.719c-0.967-0.301-1.96-0.435-2.95-0.443c-0.029-0.002-0.053-0.018-0.082-0.018h-110.08
			c-0.055,0-0.106,0.014-0.158,0.024c-2.095,0.033-4.17,0.686-5.918,1.983L4.124,95.825C1.53,97.748,0,100.786,0,104.017v41.279
			c0,5.633,4.566,10.199,10.199,10.199h101.13v335.048c0,5.633,4.566,10.199,10.199,10.199c5.633,0,10.199-4.566,10.199-10.199
			v-27.499l89.681-90.479v117.978c0,5.633,4.566,10.199,10.199,10.199c5.633,0,10.199-4.566,10.199-10.199V155.495h212.268v85.206
			c0,5.633,4.566,10.199,10.199,10.199c5.633,0,10.199-4.566,10.199-10.199v-85.206h22.324c5.633,0,10.199-4.566,10.199-10.199
			v-41.279C506.996,99.551,504.092,95.605,499.829,94.278z M111.329,135.098H20.398v-25.947l90.931-67.432V135.098z
			 M131.728,433.396V267.489l82.953,82.953L131.728,433.396z M221.408,328.322l-81.078-81.078l81.078-81.078V328.322z
			 M131.729,226.998v-71.503h71.503L131.729,226.998z M221.408,89.753h-50.062V73.434h50.062V89.753z M221.408,53.036h-60.261
			c-5.633,0-10.199,4.566-10.199,10.199v36.717c0,5.633,4.566,10.199,10.199,10.199h60.261v24.945h-89.681V31.656h89.681V53.036z
			 M241.807,35.315l67.002,20.859l-67.002,67.001V35.315z M258.732,135.097l61.689-61.689l61.689,61.689H258.732z M342.535,66.673
			l85.512,26.622l-29.445,29.445L342.535,66.673z M415.094,135.097l31.999-31.999c0.947-0.948,1.662-2.039,2.159-3.201
			l37.344,11.626v23.573H415.094z"/>
	</g>
</g>
<g>
	<g>
		<path d="M464.274,266.199c-5.633,0-10.199,4.566-10.199,10.199v7.139c0,5.633,4.566,10.199,10.199,10.199
			c5.633,0,10.199-4.566,10.199-10.199v-7.139C474.473,270.765,469.907,266.199,464.274,266.199z"/>
	</g>
</g>
<g>
	<g>
		<path d="M501.801,310.222h-75.054c-5.633,0-10.199,4.566-10.199,10.199v75.053c0,5.633,4.566,10.199,10.199,10.199h75.054
			c5.633,0,10.199-4.566,10.199-10.199v-75.053C512,314.788,507.434,310.222,501.801,310.222z M491.602,385.275h-54.656V330.62
			h54.656V385.275z"/>
	</g>
</g>
<g>
</g>
<g>
</g>
<g>
</g>
<g>
</g>
<g>
</g>
<g>
</g>
<g>
</g>
<g>
</g>
<g>
</g>
<g>
</g>
<g>
</g>
<g>
</g>
<g>
</g>
<g>
</g>
<g>
</g>
</svg>
